<svg xmlns="http://www.w3.org/2000/svg" id="Layer_2" data-name="Layer 2" viewBox="0 0 278.31 91.72"><defs><style>      .cls-1 {        fill: none;      }      .cls-1, .cls-2, .cls-3, .cls-4, .cls-5 {        stroke-width: 0px;      }      .cls-2 {        fill: #ea6228;      }      .cls-3 {        fill: #494848;      }      .cls-4 {        fill: #6b6a6a;      }      .cls-5 {        fill: #2a619b;      }    </style></defs><g id="Layer_1-2" data-name="Layer 1"><g><g><path class="cls-5" d="m12.51,6.69v58.98H.68V6.69h11.83Z"></path><path class="cls-5" d="m60.26,23.46c3.44,3.52,5.15,8.44,5.15,14.75v27.46h-11.83v-25.86c0-3.72-.93-6.58-2.79-8.58-1.86-2-4.39-3-7.61-3s-5.85,1-7.73,3c-1.89,2-2.83,4.86-2.83,8.58v25.86h-11.83V18.86h11.83v5.83c1.58-2.03,3.59-3.62,6.04-4.77,2.45-1.15,5.14-1.73,8.07-1.73,5.58,0,10.08,1.76,13.52,5.28Z"></path><path class="cls-5" d="m94.74,28.58h-8.2v37.1h-12V28.58h-5.32v-9.72h5.32v-2.37c0-5.75,1.63-9.97,4.9-12.68C82.71,1.11,87.64-.15,94.23.01v9.97c-2.87-.06-4.87.42-6,1.44-1.13,1.01-1.69,2.85-1.69,5.49v1.94h8.2v9.72Z"></path><path class="cls-5" d="m107.66,63.44c-3.61-2-6.44-4.83-8.49-8.49-2.06-3.66-3.08-7.89-3.08-12.68s1.06-9.01,3.17-12.68c2.11-3.66,5-6.49,8.66-8.49,3.66-2,7.75-3,12.25-3s8.59,1,12.25,3c3.66,2,6.55,4.83,8.66,8.49,2.11,3.66,3.17,7.89,3.17,12.68s-1.09,9.01-3.25,12.68c-2.17,3.66-5.1,6.49-8.79,8.49-3.69,2-7.82,3-12.38,3s-8.56-1-12.17-3Zm18.21-8.87c1.89-1.04,3.39-2.61,4.52-4.69,1.13-2.08,1.69-4.62,1.69-7.61,0-4.45-1.17-7.87-3.51-10.27-2.34-2.39-5.2-3.59-8.58-3.59s-6.21,1.2-8.49,3.59c-2.28,2.4-3.42,5.82-3.42,10.27s1.11,7.87,3.34,10.27c2.22,2.4,5.03,3.59,8.41,3.59,2.14,0,4.15-.52,6.04-1.56Z"></path></g><g><path class="cls-3" d="m229.89,7.45v58.98h-11.83V7.45h11.83Z"></path><path class="cls-3" d="m278.31,7.45v9.55h-15.72v49.43h-11.83V17h-15.72V7.45h43.27Z"></path></g><g><path class="cls-4" d="m148.96,91.18c-.8-.36-1.42-.87-1.88-1.52-.45-.65-.7-1.38-.73-2.18h1.68c.08.77.42,1.45,1.02,2.03.61.58,1.49.88,2.66.88,1.08,0,1.93-.28,2.56-.83.63-.55.94-1.25.94-2.1,0-.68-.17-1.23-.52-1.65-.35-.42-.78-.73-1.3-.93-.52-.2-1.23-.43-2.14-.67-1.06-.29-1.9-.57-2.52-.84-.62-.27-1.15-.7-1.59-1.27-.44-.58-.66-1.36-.66-2.34,0-.82.21-1.55.64-2.19.42-.64,1.02-1.15,1.8-1.51.77-.36,1.66-.55,2.66-.55,1.47,0,2.66.36,3.56,1.08.9.72,1.42,1.65,1.56,2.78h-1.73c-.11-.65-.46-1.23-1.07-1.74-.61-.51-1.42-.76-2.46-.76-.95,0-1.75.25-2.39.76-.64.51-.95,1.2-.95,2.08,0,.67.17,1.2.52,1.61.35.41.78.72,1.31.93.52.21,1.23.44,2.13.68,1.03.29,1.86.57,2.5.85.64.28,1.17.71,1.61,1.28.44.58.66,1.35.66,2.32,0,.74-.2,1.45-.59,2.11-.39.67-.98,1.21-1.75,1.61-.77.41-1.7.61-2.77.61s-1.97-.18-2.76-.55Z"></path><path class="cls-4" d="m163.04,90.69c-1.2-.69-2.14-1.65-2.83-2.89-.69-1.24-1.03-2.63-1.03-4.19s.34-2.96,1.03-4.19c.69-1.24,1.63-2.2,2.83-2.89,1.2-.69,2.53-1.03,4-1.03s2.83.34,4.02,1.03c1.2.69,2.14,1.65,2.82,2.89s1.02,2.63,1.02,4.19-.34,2.96-1.02,4.19-1.62,2.2-2.82,2.89c-1.2.69-2.54,1.03-4.02,1.03s-2.8-.34-4-1.03Zm7.18-1.17c.94-.55,1.68-1.33,2.23-2.35.55-1.02.82-2.21.82-3.56s-.27-2.53-.82-3.55c-.55-1.02-1.29-1.8-2.23-2.34-.94-.55-2-.82-3.18-.82s-2.24.27-3.18.82c-.94.55-1.68,1.33-2.23,2.34-.55,1.02-.82,2.2-.82,3.55s.27,2.53.82,3.56c.55,1.02,1.29,1.81,2.23,2.35.94.55,2,.82,3.18.82s2.24-.27,3.18-.82Z"></path><path class="cls-4" d="m179.41,90.27h5.71v1.3h-7.3v-15.89h1.59v14.6Z"></path><path class="cls-4" d="m188.91,75.67v10c0,1.58.38,2.74,1.13,3.5.75.76,1.78,1.14,3.08,1.14s2.32-.38,3.06-1.13c.74-.75,1.1-1.92,1.1-3.51v-10h1.59v9.98c0,2.02-.53,3.53-1.6,4.55-1.07,1.02-2.46,1.52-4.17,1.52s-3.1-.51-4.17-1.52c-1.07-1.02-1.6-2.53-1.6-4.55v-9.98h1.59Z"></path><path class="cls-4" d="m211.72,75.67v1.32h-4.41v14.57h-1.59v-14.57h-4.43v-1.32h10.44Z"></path><path class="cls-4" d="m215.83,75.67v15.89h-1.59v-15.89h1.59Z"></path><path class="cls-4" d="m222.58,90.69c-1.2-.69-2.14-1.65-2.83-2.89-.69-1.24-1.03-2.63-1.03-4.19s.34-2.96,1.03-4.19c.69-1.24,1.63-2.2,2.83-2.89,1.2-.69,2.53-1.03,4-1.03s2.83.34,4.02,1.03c1.2.69,2.14,1.65,2.82,2.89s1.02,2.63,1.02,4.19-.34,2.96-1.02,4.19-1.62,2.2-2.82,2.89c-1.2.69-2.54,1.03-4.02,1.03s-2.8-.34-4-1.03Zm7.18-1.17c.94-.55,1.68-1.33,2.23-2.35.55-1.02.82-2.21.82-3.56s-.27-2.53-.82-3.55c-.55-1.02-1.29-1.8-2.23-2.34-.94-.55-2-.82-3.18-.82s-2.24.27-3.18.82c-.94.55-1.68,1.33-2.23,2.34-.55,1.02-.82,2.2-.82,3.55s.27,2.53.82,3.56c.55,1.02,1.29,1.81,2.23,2.35.94.55,2,.82,3.18.82s2.24-.27,3.18-.82Z"></path><path class="cls-4" d="m249.34,91.56h-1.59l-8.8-13.37v13.37h-1.59v-15.89h1.59l8.8,13.34v-13.34h1.59v15.89Z"></path><path class="cls-4" d="m255.01,91.18c-.8-.36-1.42-.87-1.88-1.52-.45-.65-.7-1.38-.73-2.18h1.68c.08.77.42,1.45,1.02,2.03.61.58,1.49.88,2.66.88,1.08,0,1.93-.28,2.56-.83.63-.55.94-1.25.94-2.1,0-.68-.17-1.23-.52-1.65-.35-.42-.78-.73-1.3-.93-.52-.2-1.23-.43-2.14-.67-1.06-.29-1.9-.57-2.52-.84-.62-.27-1.15-.7-1.59-1.27-.44-.58-.66-1.36-.66-2.34,0-.82.21-1.55.64-2.19.42-.64,1.02-1.15,1.8-1.51.77-.36,1.66-.55,2.66-.55,1.47,0,2.66.36,3.56,1.08.9.72,1.42,1.65,1.56,2.78h-1.73c-.11-.65-.46-1.23-1.07-1.74-.61-.51-1.42-.76-2.46-.76-.95,0-1.75.25-2.39.76-.64.51-.95,1.2-.95,2.08,0,.67.17,1.2.52,1.61.35.41.78.72,1.31.93.52.21,1.23.44,2.13.68,1.03.29,1.86.57,2.5.85.64.28,1.17.71,1.61,1.28.44.58.66,1.35.66,2.32,0,.74-.2,1.45-.59,2.11-.39.67-.98,1.21-1.75,1.61-.77.41-1.7.61-2.77.61s-1.97-.18-2.76-.55Z"></path></g><rect class="cls-5" y="84.68" width="138.33" height="2.15"></rect><g><rect class="cls-1" x="159.53" y="9.92" width="3.29" height="10.08"></rect><rect class="cls-5" x="147.14" y="9.92" width="12.93" height="10.08"></rect><polygon class="cls-5" points="162.87 55.27 193.27 55.27 193.27 65.36 146.53 65.36 146.53 57.33 160.06 41.19 168 49.13 162.87 55.27"></polygon><polygon class="cls-2" points="194.09 9.92 194.09 17.87 169.91 46.86 162.06 38.99 178.02 19.91 163.2 19.91 163.2 9.92 194.09 9.92"></polygon></g></g></g></svg>